<svg xmlns="http://www.w3.org/2000/svg" width="216" height="62" fill="none"><g fill="#292524" clip-path="url(#a)"><path d="M97.4 6c.7 0 1.2.1 1.7.3.5.2 1 .6 1.5 1.1l1.2-1.3c-1.2-1.3-2.7-1.9-4.4-1.9-1.8 0-3.2.6-4.4 1.7-1.2 1.1-1.7 2.5-1.7 4.2 0 1.7.6 3.1 1.7 4.2s2.6 1.7 4.3 1.7c1.7 0 3.2-.7 4.4-2l-1.2-1.3c-.5.5-1 .8-1.5 1.1-.5.2-1 .3-1.7.3-1.1 0-2-.4-2.8-1.2-.8-.8-1.2-1.7-1.2-2.9s.4-2.1 1.2-2.8c.8-.9 1.7-1.2 2.9-1.2ZM115.9 4.1c-1.7 0-3.1.6-4.3 1.7-1.2 1.1-1.7 2.5-1.7 4.2 0 1.7.6 3.1 1.7 4.2s2.6 1.7 4.3 1.7c1.7 0 3.1-.6 4.3-1.7 1.2-1.1 1.7-2.5 1.7-4.2 0-1.7-.6-3.1-1.7-4.2-1.2-1.1-2.6-1.7-4.3-1.7Zm2.8 8.8c-.8.8-1.7 1.2-2.9 1.2s-2.1-.4-2.9-1.2c-.8-.8-1.2-1.8-1.2-2.9 0-1.1.4-2.1 1.2-2.9.8-.8 1.7-1.2 2.9-1.2s2.1.4 2.9 1.2c.8.8 1.2 1.8 1.2 2.9 0 1.1-.4 2.1-1.2 2.9ZM143.7 15.8V4.4h-2.9l-3.5 7.1-3.4-7.1h-3v11.4h1.9V6.9l4 7.9h1.1l3.9-7.9v8.9h1.9ZM163 8.4c0-1.4-.4-2.4-1.2-3.1-.8-.7-2.1-1-3.8-1h-3.9v11.4h1.9v-3.3h2c1.7 0 2.9-.3 3.7-1 .9-.6 1.3-1.6 1.3-3Zm-2.5 1.7c-.4.4-1.1.6-2.2.6h-2.2V6.1h2c1 0 1.8.2 2.3.5.5.3.7.9.7 1.7-.1.8-.2 1.3-.6 1.8ZM179.6 13.9h-5.2V4.4h-1.9v11.4h7.1v-1.9ZM197.2 13.9h-6.3v-3h5.5V9.2h-5.5v-3h6.1V4.4h-8v11.4h8.2v-1.9ZM212.1 9.9l3.6-5.5h-2.3l-2.6 3.8h-.1l-2.5-3.8h-2.4l3.6 5.5-3.9 5.9h2.4l2.8-4.3h.1l2.8 4.3h2.4l-3.9-5.9ZM96.6 30.1c-1.2-.3-1.9-.5-2.3-.8-.4-.2-.5-.6-.5-1.1 0-.5.2-.8.5-1 .4-.2.8-.3 1.4-.3.6 0 1.1.1 1.7.3.6.2 1 .4 1.4.8l1-1.5c-.5-.4-1.1-.8-1.8-1-.7-.2-1.4-.4-2.2-.4-1.1 0-2.1.3-2.8.9-.8.6-1.2 1.4-1.2 2.4s.3 1.8 1 2.3c.3.3.7.5 1.2.7.4.2 1.1.4 1.9.5.8.2 1.4.4 1.8.7.3.2.5.6.5 1s-.2.8-.6 1.1c-.4.3-.8.4-1.5.4-1.2 0-2.4-.5-3.6-1.5L91.3 35c1.4 1.2 3 1.8 4.7 1.8 1.2 0 2.2-.3 2.9-.9.7-.6 1.1-1.4 1.1-2.4s-.3-1.7-.9-2.2c-.4-.5-1.3-.9-2.5-1.2ZM111.1 36.8h2v-4.5l4.2-6.9h-2.1l-3.1 5.2-3.1-5.2h-2.1l4.2 6.9v4.5ZM131.2 34.7c-.4.3-.9.4-1.5.4-1.2 0-2.4-.5-3.6-1.5l-1.2 1.5c1.4 1.2 3 1.8 4.7 1.8 1.2 0 2.2-.3 2.9-.9.7-.6 1.1-1.4 1.1-2.4s-.3-1.7-.9-2.2c-.6-.5-1.5-.9-2.6-1.2-1.1-.3-1.9-.5-2.3-.8-.4-.2-.5-.6-.5-1.1 0-.5.2-.8.5-1 .4-.2.8-.3 1.4-.3.6 0 1.1.1 1.7.3.6.2 1 .4 1.4.8l1-1.5c-.5-.4-1.1-.8-1.9-1-.8-.2-1.4-.4-2.2-.4-1.1 0-2.1.3-2.8.9-.8.6-1.2 1.4-1.2 2.4s.3 1.8 1 2.3c.3.3.7.5 1.2.7.4.2 1.1.4 1.9.5.8.2 1.4.4 1.8.7.3.2.5.6.5 1 .1.4 0 .7-.4 1ZM142.3 27.1h3.4v9.7h2v-9.7h3.4v-1.7h-8.8v1.7ZM168.6 35h-6.2v-3.1h5.4v-1.7h-5.4v-3h6v-1.8h-8v11.4h8.2V35ZM184.8 32.5l-3.5-7.1h-3v11.4h1.9v-8.9l4 7.9h1.1l3.9-7.9v8.9h2V25.4h-3l-3.4 7.1ZM205.9 30.1c-1.2-.3-1.9-.5-2.3-.8-.4-.2-.5-.6-.5-1.1 0-.5.2-.8.5-1 .4-.2.8-.3 1.4-.3.6 0 1.1.1 1.7.3.6.2 1 .4 1.4.8l1-1.5c-.5-.4-1.1-.8-1.9-1-.7-.2-1.4-.4-2.2-.4-1.1 0-2.1.3-2.8.9-.8.6-1.1 1.4-1.1 2.4s.3 1.8 1 2.3c.3.3.7.5 1.2.7.4.2 1.1.4 1.9.5.8.2 1.4.4 1.8.7.3.2.5.6.5 1s-.2.8-.6 1.1c-.4.3-.9.4-1.5.4-1.2 0-2.4-.5-3.6-1.5l-1.2 1.5c1.4 1.2 3 1.8 4.7 1.8 1.2 0 2.2-.3 2.9-.9.7-.6 1.1-1.4 1.1-2.4s-.3-1.7-.9-2.2c-.4-.6-1.3-1-2.5-1.3ZM96.6 51.1c-1.2-.3-1.9-.5-2.3-.8-.4-.3-.5-.6-.5-1.1 0-.5.2-.8.5-1 .3-.2.8-.3 1.4-.3.6 0 1.1.1 1.7.3.6.2 1 .4 1.4.8l1-1.5c-.5-.4-1.1-.8-1.9-1-.7-.2-1.4-.4-2.2-.4-1.1 0-2.1.3-2.8.8-.8.6-1.2 1.4-1.2 2.4s.3 1.8 1 2.3c.3.3.7.5 1.2.7.5.2 1.1.3 1.9.5.8.2 1.4.4 1.8.7.3.2.5.6.5 1s-.2.8-.5 1.1c-.3.3-.9.4-1.5.4-1.2 0-2.4-.5-3.6-1.5L91.3 56c1.4 1.2 3 1.8 4.7 1.8 1.2 0 2.2-.3 2.9-.9.7-.6 1.1-1.4 1.1-2.4s-.3-1.7-.9-2.2c-.4-.5-1.3-.9-2.5-1.2ZM114.7 46.1c-1.7 0-3.1.6-4.3 1.7-1.2 1.1-1.7 2.5-1.7 4.2 0 1.7.6 3.1 1.7 4.2 1.2 1.1 2.6 1.7 4.3 1.7 1.7 0 3.1-.6 4.3-1.7 1.2-1.1 1.7-2.5 1.7-4.2 0-1.7-.6-3.1-1.7-4.2-1.2-1.1-2.6-1.7-4.3-1.7Zm2.8 8.8c-.8.8-1.7 1.2-2.9 1.2s-2.1-.4-2.9-1.2c-.8-.8-1.2-1.8-1.2-2.9 0-1.1.4-2.1 1.2-2.9.8-.8 1.7-1.2 2.9-1.2s2.1.4 2.9 1.2c.8.8 1.2 1.8 1.2 2.9 0 1.2-.4 2.1-1.2 2.9ZM135.4 48c.6 0 1.2.1 1.7.3.5.2 1 .6 1.5 1.1l1.2-1.3c-1.2-1.3-2.7-2-4.4-2-1.7 0-3.2.6-4.4 1.7-1.2 1.1-1.7 2.5-1.7 4.2 0 1.7.6 3.1 1.7 4.2s2.6 1.7 4.3 1.7c1.7 0 3.2-.7 4.4-2l-1.2-1.3c-.5.5-1 .8-1.5 1.1-.5.2-1.1.3-1.7.3-1.1 0-2-.4-2.8-1.2-.8-.8-1.2-1.7-1.2-2.9s.4-2.1 1.2-2.8c.7-.7 1.7-1.1 2.9-1.1ZM150.5 46.4h-1.9v11.4h1.9V46.4ZM162.8 52.9h5.5v-1.7h-5.5v-3h6.1v-1.8h-8v11.4h8.2V56h-6.3v-3.1ZM177.7 48.2h3.5v9.6h1.9v-9.6h3.5v-1.8h-8.9v1.8ZM198.1 51.6l-3.1-5.2h-2.1l4.2 6.9v4.5h2v-4.5l4.2-6.9h-2.1l-3.1 5.2ZM24.7 1.7h-7v15.1h7V1.7ZM42.4 18.4c0-1.6-.1-3.5.1-5.3.4-2.8 1.5-5.2 5.1-5.2 2.9 0 5.2 2.3 5.3 5.2v3.6h7V13C59.9 6.2 54.4.8 47.6.8c-6.8 0-12.3 5.5-12.3 12.3v21.3h7c.1-5.3.2-10.6.1-16ZM60 27.7h-7V61h7V27.7ZM51.2 36.1H26.6v7h24.6v-7Z"/><path d="M74 18.7H44.2v7H74v-7ZM73.9 36.1H61.8v7h12.1v-7ZM42.3 45.2h-7v3.7c0 2.9-2.4 5.2-5.2 5.2-2.9 0-5.2-2.3-5.2-5.2V27.5h-7v21.8c.1 6.6 5.5 11.8 12.1 11.8 6.8 0 12.3-5.5 12.3-12.3v-3.6Z"/><path d="M12.2 36.1c-2.9 0-5.2-2.4-5.2-5.2 0-2.9 2.3-5.2 5.2-5.2h21.3v-7H12.2C5.5 18.6 0 24.1 0 30.9c0 6.8 5.5 12.3 12.3 12.3h3.6v-7l-3.7-.1Z"/></g><defs><clipPath id="a"><path fill="#fff" d="M0 0h216v62H0z"/></clipPath></defs></svg>